<?xml version="1.0" standalone="no"?>
<!DOCTYPE svg PUBLIC "-//W3C//DTD SVG 1.1//EN" "http://www.w3.org/Graphics/SVG/1.1/DTD/svg11.dtd" >
<svg xmlns="http://www.w3.org/2000/svg" xmlns:xlink="http://www.w3.org/1999/xlink" version="1.1">
<metadata></metadata>
<defs>
<font id="bebas_kairegular" horiz-adv-x="880" >
<font-face units-per-em="2048" ascent="1536" descent="-512" />
<missing-glyph horiz-adv-x="389" />
<glyph unicode="&#xfb01;" horiz-adv-x="1193" d="M117 0v1434h600v-201h-383v-406h307v-200h-307v-627h-217zM860 0v1434h217v-1434h-217z" />
<glyph unicode="&#xfb02;" horiz-adv-x="1462" d="M117 0v1434h600v-201h-383v-406h307v-200h-307v-627h-217zM860 0v1434h217v-1229h363v-205h-580z" />
<glyph horiz-adv-x="0" />
<glyph horiz-adv-x="682" />
<glyph unicode=" "  horiz-adv-x="389" />
<glyph unicode="&#x09;" horiz-adv-x="389" />
<glyph unicode="&#xa0;" horiz-adv-x="389" />
<glyph unicode="!" horiz-adv-x="462" d="M115 1434h233l-24 -1078h-185zM117 0v229h229v-229h-229z" />
<glyph unicode="&#x22;" horiz-adv-x="761" d="M104 1434h230l-31 -459h-168zM432 1434h230l-31 -459h-168z" />
<glyph unicode="#" horiz-adv-x="995" d="M57 360l19 191h135l37 342h-135l20 190h135l37 351h184l-36 -351h165l37 351h185l-37 -351h135l-20 -190h-136l-37 -342h136l-19 -191h-135l-39 -360h-184l39 360h-166l-39 -360h-184l39 360h-136zM395 551h166l37 342h-166z" />
<glyph unicode="$" d="M104 332v82l209 20v-86q0 -147 127 -147q51 0 85 31.5t34 89.5v30q0 60 -39.5 119.5t-144.5 155.5q-145 133 -202.5 233t-57.5 217v31q0 132 61.5 213.5t175.5 103.5v129h172v-129q115 -22 178.5 -105.5t63.5 -217.5v-29l-209 -20v32q0 148 -115 148q-51 0 -80.5 -30.5 t-29.5 -90.5v-27q0 -60 39.5 -119t144.5 -155q145 -133 202.5 -233.5t57.5 -217.5v-34q0 -133 -67 -215t-185 -103v-149h-172v149q-116 25 -182 109t-66 215z" />
<glyph unicode="%" horiz-adv-x="1187" d="M59 918v311q0 104 59.5 164.5t160.5 60.5t160 -60.5t59 -164.5v-311q0 -104 -59 -165t-160 -61t-160.5 61t-59.5 165zM186 -20l680 1474h135l-679 -1474h-136zM207 918q0 -93 72 -93q71 0 71 93v311q0 92 -71 92q-72 0 -72 -92v-311zM690 205v311q0 104 59 164.5 t160 60.5t160 -60.5t59 -164.5v-311q0 -104 -59 -164.5t-160 -60.5t-160 60.5t-59 164.5zM838 205q0 -92 71 -92q72 0 72 92v311q0 92 -72 92q-71 0 -71 -92v-311z" />
<glyph unicode="&#x26;" horiz-adv-x="980" d="M80 330v51q0 100 36 188t122 185q-73 122 -101 203t-28 167v13q0 155 78 236t227 81q148 0 226.5 -81.5t78.5 -229.5v-10q0 -100 -47 -182.5t-174 -209.5l147 -229h4v211l189 -10v-236q0 -135 -33 -213l176 -264h-258l-41 66q-89 -86 -246 -86q-165 0 -260.5 91 t-95.5 259zM297 350q0 -86 40 -128t109 -42q79 0 127 51l-217 344h-4q-55 -102 -55 -192v-33zM317 1122q0 -78 72 -217h4q70 77 95.5 123.5t25.5 97.5v11q0 56 -25.5 86t-72.5 30t-73 -30.5t-26 -89.5v-11z" />
<glyph unicode="'" horiz-adv-x="434" d="M102 1434h230l-31 -459h-168z" />
<glyph unicode="(" horiz-adv-x="610" d="M106 717q0 441 240 717h213q-235 -311 -235 -717t235 -717h-213q-240 276 -240 717z" />
<glyph unicode=")" horiz-adv-x="610" d="M49 0q236 312 236 717t-236 717h213q240 -276 240 -717t-240 -717h-213z" />
<glyph unicode="*" horiz-adv-x="718" d="M35 1124l59 179l197 -82l-15 213h185l-15 -213l197 82l59 -179l-210 -51l139 -164l-150 -106l-112 182l-113 -182l-150 106l140 164z" />
<glyph unicode="+" d="M41 633v168h315v340h168v-340h316v-168h-316v-340h-168v340h-315z" />
<glyph unicode="," horiz-adv-x="462" d="M117 0v229h229v-209l-117 -249h-112l73 229h-73z" />
<glyph unicode="-" horiz-adv-x="600" d="M82 610v209h436v-209h-436z" />
<glyph unicode="." horiz-adv-x="462" d="M117 0v229h229v-229h-229z" />
<glyph unicode="/" horiz-adv-x="770" d="M39 -102l516 1638h176l-516 -1638h-176z" />
<glyph unicode="0" horiz-adv-x="888" d="M94 342v750q0 169 93.5 265.5t256.5 96.5t257 -96.5t94 -265.5v-750q0 -169 -94 -265.5t-257 -96.5t-256.5 96.5t-93.5 265.5zM311 344q0 -80 34.5 -122t98.5 -42q65 0 99.5 42.5t34.5 121.5v746q0 79 -34.5 121t-99.5 42t-99 -42t-34 -121v-746z" />
<glyph unicode="1" horiz-adv-x="690" d="M45 1102v151q136 9 234 55.5t131 125.5h151v-1434h-217v1102h-299z" />
<glyph unicode="2" horiz-adv-x="780" d="M51 0v184l322 518q73 118 101 203t28 176v29q0 143 -121 143q-61 0 -91 -40.5t-30 -129.5v-71l-209 10v98q0 158 88.5 246t245.5 88t245.5 -86.5t88.5 -241.5v-53q0 -106 -38.5 -212t-139.5 -269l-242 -387h420v-205h-668z" />
<glyph unicode="3" horiz-adv-x="819" d="M59 324v88l209 10v-72q0 -87 32.5 -128.5t100.5 -41.5t103 43t35 123v111q0 96 -37.5 140t-120.5 44h-90v201h90q75 0 109 41.5t34 132.5v78q0 77 -33 118t-96 41t-94 -41.5t-31 -128.5v-71l-209 10v88q0 163 89.5 253.5t250.5 90.5t250.5 -93t89.5 -259v-82 q0 -204 -157 -268v-4q172 -70 172 -308v-108q0 -166 -91.5 -259t-256.5 -93q-166 0 -257.5 90.5t-91.5 253.5z" />
<glyph unicode="4" horiz-adv-x="841" d="M29 303v180l456 951h215v-930h101v-201h-101v-303h-217v303h-454zM242 504h241v512h-4z" />
<glyph unicode="5" horiz-adv-x="819" d="M68 324v55l208 10v-39q0 -170 132 -170q67 0 101 43t34 123v242q0 80 -34.5 123t-100.5 43q-56 0 -89.5 -31.5t-39.5 -89.5l-3 -29l-200 8l45 822h586v-205h-396l-18 -338h4q56 63 170 63q136 0 214.5 -92.5t78.5 -259.5v-270q0 -166 -91.5 -259t-254.5 -93t-254.5 90.5 t-91.5 253.5z" />
<glyph unicode="6" horiz-adv-x="866" d="M94 342v766q0 163 91.5 254.5t252.5 91.5q162 0 251 -88t89 -250v-63l-209 -11v52q0 81 -31 120t-96 39q-131 0 -131 -147v-297h4q67 78 189 78q126 0 206.5 -90t80.5 -260v-195q0 -169 -94 -265.5t-257 -96.5q-160 0 -253 97t-93 265zM311 344q0 -79 34 -121.5t97 -42.5 t97 42.5t34 121.5v178q0 79 -34 121.5t-97 42.5t-97 -42.5t-34 -121.5v-178z" />
<glyph unicode="7" horiz-adv-x="716" d="M27 1221v213h671v-193l-401 -1241h-223l403 1221h-450z" />
<glyph unicode="8" horiz-adv-x="843" d="M63 332v108q0 238 168 308v4q-155 64 -155 268v82q0 166 91.5 259t254.5 93t254.5 -93t91.5 -259v-82q0 -204 -156 -268v-4q168 -70 168 -308v-108q0 -166 -94.5 -259t-263.5 -93t-264 93t-95 259zM281 346q0 -79 37.5 -122.5t103.5 -43.5t103.5 43.5t37.5 122.5v129 q0 79 -37.5 122.5t-103.5 43.5t-103.5 -43.5t-37.5 -122.5v-129zM293 995q0 -73 33.5 -113t95.5 -40t95.5 40t33.5 113v105q0 73 -33.5 113t-95.5 40t-95.5 -40t-33.5 -113v-105z" />
<glyph unicode="9" horiz-adv-x="866" d="M76 897v195q0 169 93.5 265.5t256.5 96.5q160 0 253 -97t93 -265v-766q0 -163 -91.5 -254.5t-252.5 -91.5q-162 0 -251 87.5t-89 249.5v64l209 10v-51q0 -160 127 -160q131 0 131 148v297h-4q-67 -78 -189 -78q-126 0 -206 90t-80 260zM293 911q0 -79 34 -121t97 -42 t97 42t34 121v179q0 79 -34 121t-97 42t-97 -42t-34 -121v-179z" />
<glyph unicode=":" horiz-adv-x="462" d="M117 0v229h229v-229h-229zM117 819v230h229v-230h-229z" />
<glyph unicode=";" horiz-adv-x="462" d="M117 0v229h229v-209l-117 -249h-112l73 229h-73zM117 819v230h229v-230h-229z" />
<glyph unicode="&#x3c;" d="M41 635v160l799 333v-186l-555 -227l555 -223v-187z" />
<glyph unicode="=" d="M41 459v168h799v-168h-799zM41 807v168h799v-168h-799z" />
<glyph unicode="&#x3e;" d="M41 305v187l555 223l-555 227v186l799 -333v-160z" />
<glyph unicode="?" horiz-adv-x="755" d="M45 1094v28q0 157 86 244.5t238 87.5q154 0 238.5 -83.5t84.5 -248.5v-32q0 -90 -28 -161.5t-103 -164.5q-79 -99 -107 -169.5t-28 -170.5v-66h-197v66q0 148 30.5 238t115.5 196q58 74 79 122.5t21 104.5v29q0 139 -108 139q-113 0 -113 -147v-33zM213 0v229h229v-229 h-229z" />
<glyph unicode="@" horiz-adv-x="1511" d="M63 696q0 225 88.5 397.5t250 266.5t372.5 94q197 0 351 -82t241.5 -235t87.5 -353q0 -204 -87.5 -324t-246.5 -120q-157 0 -205 123h-4q-72 -123 -215 -123q-116 0 -176.5 69.5t-60.5 204.5v203q0 136 60.5 206.5t176.5 70.5q128 0 199 -111h4l10 86h150v-446 q0 -113 80 -113q66 0 100.5 68.5t34.5 187.5q0 238 -137.5 375t-360.5 137q-238 0 -379 -158t-141 -424q0 -244 149 -392t396 -148q190 0 329 92l68 -158q-158 -110 -401 -110q-214 0 -381.5 90.5t-260 253.5t-92.5 372zM651 635q0 -123 92 -123q82 0 123 100v209 q-42 101 -123 101q-92 0 -92 -125v-162z" />
<glyph unicode="A" horiz-adv-x="849" d="M39 0l248 1434h276l248 -1434h-221l-47 326h-240l-47 -326h-217zM332 522h182l-88 604h-6z" />
<glyph unicode="B" horiz-adv-x="854" d="M117 0v1434h303q169 0 257.5 -93t88.5 -270v-27q0 -122 -38.5 -192.5t-123.5 -99.5v-4q100 -31 146.5 -112.5t46.5 -223.5v-50q0 -177 -93 -269.5t-268 -92.5h-319zM334 201h94q78 0 115 42.5t37 133.5v80q0 96 -38 140t-124 44h-84v-440zM334 842h67q78 0 113 41.5 t35 132.5v47q0 88 -33 129t-104 41h-78v-391z" />
<glyph unicode="C" horiz-adv-x="833" d="M94 324v786q0 163 88 253.5t246 90.5q160 0 249 -90.5t89 -253.5v-129l-209 -10v116q0 166 -123 166q-60 0 -91.5 -37t-31.5 -108v-782q0 -71 31.5 -108.5t91.5 -37.5q123 0 123 166v160l209 -10v-172q0 -163 -89 -253.5t-249 -90.5q-158 0 -246 90.5t-88 253.5z" />
<glyph unicode="D" horiz-adv-x="882" d="M117 0v1434h311q175 0 267.5 -93t92.5 -270v-709q0 -177 -92.5 -269.5t-267.5 -92.5h-311zM334 201h86q78 0 114.5 42.5t36.5 133.5v680q0 91 -36.5 133.5t-114.5 42.5h-86v-1032z" />
<glyph unicode="E" horiz-adv-x="794" d="M117 0v1434h610v-201h-393v-406h317v-200h-317v-426h393v-201h-610z" />
<glyph unicode="F" horiz-adv-x="743" d="M117 0v1434h600v-201h-383v-406h307v-200h-307v-627h-217z" />
<glyph unicode="G" horiz-adv-x="862" d="M94 324v786q0 163 88.5 253.5t249.5 90.5q163 0 252.5 -90.5t89.5 -253.5v-98l-209 -11v86q0 166 -127 166t-127 -145v-782q0 -146 125 -146q63 0 94 40t31 126v246h-123v201h336v-469q0 -163 -89.5 -253.5t-252.5 -90.5q-161 0 -249.5 90.5t-88.5 253.5z" />
<glyph unicode="H" horiz-adv-x="925" d="M117 0v1434h217v-605h258v605h217v-1434h-217v625h-258v-625h-217z" />
<glyph unicode="I" horiz-adv-x="450" d="M117 0v1434h217v-1434h-217z" />
<glyph unicode="J" horiz-adv-x="616" d="M31 -2l12 199q57 -17 107 -17q75 0 109 38.5t34 121.5v1094h217v-1100q0 -174 -83.5 -264t-250.5 -90q-78 0 -145 18z" />
<glyph unicode="K" horiz-adv-x="884" d="M117 0v1434h217v-598h4l301 598h227l-295 -570l301 -864h-231l-213 627l-94 -185v-442h-217z" />
<glyph unicode="L" horiz-adv-x="718" d="M117 0v1434h217v-1229h362v-205h-579z" />
<glyph unicode="M" horiz-adv-x="1153" d="M117 0v1434h284l170 -770h4l168 770h293v-1434h-217v995h-4l-180 -790h-129l-180 790h-4v-995h-205z" />
<glyph unicode="N" horiz-adv-x="940" d="M117 0v1434h241l256 -854h4v854h205v-1434h-213l-284 950h-4v-950h-205z" />
<glyph unicode="O" horiz-adv-x="888" d="M94 342v750q0 169 93.5 265.5t256.5 96.5t257 -96.5t94 -265.5v-750q0 -169 -94 -265.5t-257 -96.5t-256.5 96.5t-93.5 265.5zM311 344q0 -80 34.5 -122t98.5 -42q65 0 99.5 42.5t34.5 121.5v746q0 79 -34.5 121t-99.5 42t-99 -42t-34 -121v-746z" />
<glyph unicode="P" horiz-adv-x="833" d="M117 0v1434h313q175 0 268 -93t93 -270v-115q0 -177 -93 -269.5t-268 -92.5h-96v-594h-217zM334 795h88q78 0 114.5 42.5t36.5 133.5v86q0 91 -36.5 133.5t-114.5 42.5h-88v-438z" />
<glyph unicode="Q" horiz-adv-x="888" d="M94 342v750q0 169 93.5 265.5t256.5 96.5t257 -96.5t94 -265.5v-750q0 -132 -60 -223q32 -35 111 -35l-21 -201q-167 0 -239 119q-64 -22 -142 -22q-163 0 -256.5 96.5t-93.5 265.5zM311 344q0 -80 34.5 -122t98.5 -42q65 0 99.5 42.5t34.5 121.5v746q0 79 -34.5 121 t-99.5 42t-99 -42t-34 -121v-746z" />
<glyph unicode="R" horiz-adv-x="876" d="M117 0v1434h313q175 0 268 -93t93 -270v-102q0 -228 -154 -316l199 -653h-230l-172 606h-100v-606h-217zM334 807h88q78 0 114.5 42.5t36.5 133.5v74q0 91 -36.5 133.5t-114.5 42.5h-88v-426z" />
<glyph unicode="S" horiz-adv-x="733" d="M47 301v96l209 21v-103q0 -135 123 -135t123 135v47q0 69 -41 131.5t-148 153.5q-148 125 -207 226.5t-59 228.5v31q0 154 84.5 237.5t239.5 83.5t239 -83.5t84 -237.5v-37l-209 -21v53q0 125 -110 125q-111 0 -111 -125v-18q0 -66 38.5 -128t143.5 -151 q151 -127 212 -228.5t61 -229.5v-72q0 -154 -87.5 -237.5t-248.5 -83.5t-248.5 83.5t-87.5 237.5z" />
<glyph unicode="T" horiz-adv-x="724" d="M23 1229v205h679v-205h-231v-1229h-217v1229h-231z" />
<glyph unicode="U" d="M104 322v1112h209v-1106q0 -144 123 -144t123 144v1106h217v-1112q0 -166 -89.5 -254t-248.5 -88q-156 0 -245 88t-89 254z" />
<glyph unicode="V" horiz-adv-x="841" d="M39 1434h221l162 -1094h4l160 1094h217l-242 -1434h-280z" />
<glyph unicode="W" horiz-adv-x="1214" d="M39 1434h223l125 -951h4l123 951h193l122 -951h5l124 951h218l-222 -1434h-221l-123 854h-4l-125 -854h-221z" />
<glyph unicode="X" horiz-adv-x="841" d="M18 0l275 743l-258 691h229l160 -457h4l154 457h225l-258 -699l274 -735h-229l-178 504h-4l-168 -504h-226z" />
<glyph unicode="Y" horiz-adv-x="770" d="M-23 1434h230l182 -508h4l174 508h226l-297 -787v-647h-217v649z" />
<glyph unicode="Z" horiz-adv-x="716" d="M39 0v180l399 1053h-379v201h615v-181l-400 -1052h400v-201h-635z" />
<glyph unicode="[" horiz-adv-x="610" d="M137 0v1434h393v-156h-176v-1122h176v-156h-393z" />
<glyph unicode="\" horiz-adv-x="770" d="M39 1536h176l516 -1638h-176z" />
<glyph unicode="]" horiz-adv-x="610" d="M78 0v156h176v1122h-176v156h393v-1434h-393z" />
<glyph unicode="^" d="M37 850l325 584h160l324 -584h-201l-203 373l-204 -373h-201z" />
<glyph unicode="_" horiz-adv-x="901" d="M0 -102h901v-148h-901v148z" />
<glyph unicode="`" horiz-adv-x="512" d="M23 1741h219l118 -225h-159z" />
<glyph unicode="a" horiz-adv-x="849" d="M39 0l248 1434h276l248 -1434h-221l-47 326h-240l-47 -326h-217zM332 522h182l-88 604h-6z" />
<glyph unicode="b" horiz-adv-x="854" d="M117 0v1434h303q169 0 257.5 -93t88.5 -270v-27q0 -122 -38.5 -192.5t-123.5 -99.5v-4q100 -31 146.5 -112.5t46.5 -223.5v-50q0 -177 -93 -269.5t-268 -92.5h-319zM334 201h94q78 0 115 42.5t37 133.5v80q0 96 -38 140t-124 44h-84v-440zM334 842h67q78 0 113 41.5 t35 132.5v47q0 88 -33 129t-104 41h-78v-391z" />
<glyph unicode="c" horiz-adv-x="833" d="M94 324v786q0 163 88 253.5t246 90.5q160 0 249 -90.5t89 -253.5v-129l-209 -10v116q0 166 -123 166q-60 0 -91.5 -37t-31.5 -108v-782q0 -71 31.5 -108.5t91.5 -37.5q123 0 123 166v160l209 -10v-172q0 -163 -89 -253.5t-249 -90.5q-158 0 -246 90.5t-88 253.5z" />
<glyph unicode="d" horiz-adv-x="882" d="M117 0v1434h311q175 0 267.5 -93t92.5 -270v-709q0 -177 -92.5 -269.5t-267.5 -92.5h-311zM334 201h86q78 0 114.5 42.5t36.5 133.5v680q0 91 -36.5 133.5t-114.5 42.5h-86v-1032z" />
<glyph unicode="e" horiz-adv-x="794" d="M117 0v1434h610v-201h-393v-406h317v-200h-317v-426h393v-201h-610z" />
<glyph unicode="f" horiz-adv-x="743" d="M117 0v1434h600v-201h-383v-406h307v-200h-307v-627h-217z" />
<glyph unicode="g" horiz-adv-x="862" d="M94 324v786q0 163 88.5 253.5t249.5 90.5q163 0 252.5 -90.5t89.5 -253.5v-98l-209 -11v86q0 166 -127 166t-127 -145v-782q0 -146 125 -146q63 0 94 40t31 126v246h-123v201h336v-469q0 -163 -89.5 -253.5t-252.5 -90.5q-161 0 -249.5 90.5t-88.5 253.5z" />
<glyph unicode="h" horiz-adv-x="925" d="M117 0v1434h217v-605h258v605h217v-1434h-217v625h-258v-625h-217z" />
<glyph unicode="i" horiz-adv-x="450" d="M117 0v1434h217v-1434h-217z" />
<glyph unicode="j" horiz-adv-x="616" d="M31 -2l12 199q57 -17 107 -17q75 0 109 38.5t34 121.5v1094h217v-1100q0 -174 -83.5 -264t-250.5 -90q-78 0 -145 18z" />
<glyph unicode="k" horiz-adv-x="884" d="M117 0v1434h217v-598h4l301 598h227l-295 -570l301 -864h-231l-213 627l-94 -185v-442h-217z" />
<glyph unicode="l" horiz-adv-x="718" d="M117 0v1434h217v-1229h362v-205h-579z" />
<glyph unicode="m" horiz-adv-x="1153" d="M117 0v1434h284l170 -770h4l168 770h293v-1434h-217v995h-4l-180 -790h-129l-180 790h-4v-995h-205z" />
<glyph unicode="n" horiz-adv-x="940" d="M117 0v1434h241l256 -854h4v854h205v-1434h-213l-284 950h-4v-950h-205z" />
<glyph unicode="o" horiz-adv-x="888" d="M94 342v750q0 169 93.5 265.5t256.5 96.5t257 -96.5t94 -265.5v-750q0 -169 -94 -265.5t-257 -96.5t-256.5 96.5t-93.5 265.5zM311 344q0 -80 34.5 -122t98.5 -42q65 0 99.5 42.5t34.5 121.5v746q0 79 -34.5 121t-99.5 42t-99 -42t-34 -121v-746z" />
<glyph unicode="p" horiz-adv-x="833" d="M117 0v1434h313q175 0 268 -93t93 -270v-115q0 -177 -93 -269.5t-268 -92.5h-96v-594h-217zM334 795h88q78 0 114.5 42.5t36.5 133.5v86q0 91 -36.5 133.5t-114.5 42.5h-88v-438z" />
<glyph unicode="q" horiz-adv-x="888" d="M94 342v750q0 169 93.5 265.5t256.5 96.5t257 -96.5t94 -265.5v-750q0 -132 -60 -223q32 -35 111 -35l-21 -201q-167 0 -239 119q-64 -22 -142 -22q-163 0 -256.5 96.5t-93.5 265.5zM311 344q0 -80 34.5 -122t98.5 -42q65 0 99.5 42.5t34.5 121.5v746q0 79 -34.5 121 t-99.5 42t-99 -42t-34 -121v-746z" />
<glyph unicode="r" horiz-adv-x="876" d="M117 0v1434h313q175 0 268 -93t93 -270v-102q0 -228 -154 -316l199 -653h-230l-172 606h-100v-606h-217zM334 807h88q78 0 114.5 42.5t36.5 133.5v74q0 91 -36.5 133.5t-114.5 42.5h-88v-426z" />
<glyph unicode="s" horiz-adv-x="733" d="M47 301v96l209 21v-103q0 -135 123 -135t123 135v47q0 69 -41 131.5t-148 153.5q-148 125 -207 226.5t-59 228.5v31q0 154 84.5 237.5t239.5 83.5t239 -83.5t84 -237.5v-37l-209 -21v53q0 125 -110 125q-111 0 -111 -125v-18q0 -66 38.5 -128t143.5 -151 q151 -127 212 -228.5t61 -229.5v-72q0 -154 -87.5 -237.5t-248.5 -83.5t-248.5 83.5t-87.5 237.5z" />
<glyph unicode="t" horiz-adv-x="724" d="M23 1229v205h679v-205h-231v-1229h-217v1229h-231z" />
<glyph unicode="u" d="M104 322v1112h209v-1106q0 -144 123 -144t123 144v1106h217v-1112q0 -166 -89.5 -254t-248.5 -88q-156 0 -245 88t-89 254z" />
<glyph unicode="v" horiz-adv-x="841" d="M39 1434h221l162 -1094h4l160 1094h217l-242 -1434h-280z" />
<glyph unicode="w" horiz-adv-x="1214" d="M39 1434h223l125 -951h4l123 951h193l122 -951h5l124 951h218l-222 -1434h-221l-123 854h-4l-125 -854h-221z" />
<glyph unicode="x" horiz-adv-x="841" d="M18 0l275 743l-258 691h229l160 -457h4l154 457h225l-258 -699l274 -735h-229l-178 504h-4l-168 -504h-226z" />
<glyph unicode="y" horiz-adv-x="770" d="M-23 1434h230l182 -508h4l174 508h226l-297 -787v-647h-217v649z" />
<glyph unicode="z" horiz-adv-x="716" d="M39 0v180l399 1053h-379v201h615v-181l-400 -1052h400v-201h-635z" />
<glyph unicode="{" horiz-adv-x="610" d="M57 639v156q67 0 94 29t27 98v229q0 153 68 218t221 65h63v-156q-76 0 -105.5 -31t-29.5 -108v-238q0 -137 -108 -182v-4q108 -45 108 -183v-237q0 -77 29.5 -108t105.5 -31v-156h-63q-153 0 -221 65t-68 218v229q0 69 -27 98t-94 29z" />
<glyph unicode="|" horiz-adv-x="481" d="M158 -307v2048h166v-2048h-166z" />
<glyph unicode="}" horiz-adv-x="610" d="M78 0v156q76 0 105.5 31t29.5 108v237q0 137 109 183v4q-109 46 -109 182v238q0 77 -29.5 108t-105.5 31v156h63q153 0 221 -65t68 -218v-229q0 -69 27 -98t94 -29v-156q-67 0 -94 -29t-27 -98v-229q0 -153 -68 -218t-221 -65h-63z" />
<glyph unicode="~" horiz-adv-x="884" d="M16 682q72 100 136 137t147 37q76 0 178 -59q78 -45 115 -45q47 0 78.5 21t85.5 89l112 -110q-72 -100 -136 -137t-146 -37q-76 0 -178 59q-78 45 -115 45q-47 0 -78 -21.5t-86 -89.5z" />
<glyph unicode="&#xa1;" horiz-adv-x="462" d="M113 0l24 1077h185l24 -1077h-233zM115 1204v230h229v-230h-229z" />
<glyph unicode="&#xa2;" d="M113 528v377q0 139 64 226t183 110v129h172v-129q121 -23 186.5 -110t65.5 -226v-26l-209 -11v15q0 166 -122 166q-60 0 -91.5 -37.5t-31.5 -108.5v-373q0 -71 31.5 -108t91.5 -37q122 0 122 166v57l209 -10v-70q0 -139 -65.5 -225.5t-186.5 -109.5v-150h-172v150 q-119 23 -183 109.5t-64 225.5z" />
<glyph unicode="&#xa3;" d="M72 2v184q92 76 125.5 162.5t33.5 220.5v72h-159v201h159v258q0 174 83.5 264t250.5 90q115 0 195 -41l-17 -196q-84 36 -149 36q-76 0 -110.5 -38t-34.5 -121v-252h311v-201h-311v-100q0 -111 -23 -187.5t-82 -142.5v-4h457v-205h-729z" />
<glyph unicode="&#xa4;" d="M29 410l157 157q-28 58 -28 129t28 129l-157 158l118 119l158 -158q60 31 135 31t135 -31l158 158l119 -119l-158 -158q29 -60 29 -129t-29 -129l158 -157l-119 -119l-158 158q-60 -31 -135 -31t-135 31l-158 -158zM334 696q0 -48 29 -80t77 -32t77.5 32t29.5 80 t-29.5 80.5t-77.5 32.5t-77 -32t-29 -81z" />
<glyph unicode="&#xa5;" d="M37 1434h229l178 -496h5l169 496h226l-279 -738h205v-147h-219v-139h219v-148h-219v-262h-217v262h-219v148h219v139h-219v147h204z" />
<glyph unicode="&#xa6;" horiz-adv-x="481" d="M158 -307v819h166v-819h-166zM158 922v819h166v-819h-166z" />
<glyph unicode="&#xa7;" horiz-adv-x="831" d="M63 598v31q0 157 144 245v5q-70 50 -99.5 108t-29.5 141v37q0 135 86 212t237 77q162 0 255.5 -87t93.5 -239v-14l-197 -20v30q0 67 -37.5 104.5t-103.5 37.5q-60 0 -94.5 -28.5t-34.5 -78.5v-18q0 -51 39 -86t151 -84q166 -72 230.5 -146.5t64.5 -193.5v-31 q0 -159 -143 -246v-4q70 -50 99.5 -108.5t29.5 -141.5v-37q0 -135 -86.5 -211.5t-237.5 -76.5q-162 0 -255 86.5t-93 238.5v15l197 20v-31q0 -67 37.5 -104t103.5 -37q60 0 94.5 28.5t34.5 78.5v18q0 51 -39 85.5t-152 84.5q-166 72 -230.5 146.5t-64.5 193.5zM268 610 q0 -51 38.5 -86t146.5 -82q51 19 80.5 56.5t29.5 81.5v38q0 51 -38 86t-146 82q-51 -19 -81 -56t-30 -81v-39z" />
<glyph unicode="&#xa8;" horiz-adv-x="512" d="M10 1530v196h193v-196h-193zM309 1530v196h193v-196h-193z" />
<glyph unicode="&#xa9;" horiz-adv-x="1519" d="M63 717q0 164 50.5 301.5t141 233t220.5 149t285 53.5q313 0 504.5 -202.5t191.5 -534.5t-191.5 -534.5t-504.5 -202.5q-155 0 -285 53.5t-220.5 149t-141 233t-50.5 301.5zM231 717q0 -267 144 -426.5t385 -159.5t384.5 159.5t143.5 426.5t-143.5 426.5t-384.5 159.5 t-385 -159.5t-144 -426.5zM526 506v422q0 112 61.5 174.5t170.5 62.5q111 0 173 -62.5t62 -174.5v-70l-164 -8v68q0 92 -65 92q-64 0 -64 -78v-430q0 -78 64 -78q65 0 65 92v92l164 -6v-96q0 -112 -62.5 -175t-172.5 -63q-109 0 -170.5 63t-61.5 175z" />
<glyph unicode="&#xaa;" horiz-adv-x="540" d="M41 535v124h422v-124h-422zM41 975v26q0 86 54.5 135.5t148.5 49.5h80v63q0 37 -19 57.5t-53 20.5t-53 -21.5t-19 -60.5v-12l-131 6v8q0 98 55 152.5t152 54.5q98 0 152.5 -55.5t54.5 -155.5v-430h-98l-13 68h-4q-37 -78 -135 -78q-76 0 -124 47t-48 125zM180 983 q0 -27 17.5 -42t48.5 -15q37 0 57.5 22.5t20.5 63.5v59h-72q-34 0 -53 -17t-19 -46v-25z" />
<glyph unicode="&#xab;" horiz-adv-x="888" d="M70 655v123l336 256v-225l-127 -92l127 -92v-226zM459 655v123l336 256v-225l-127 -92l127 -92v-226z" />
<glyph unicode="&#xac;" d="M41 633v168h799v-508h-168v340h-631z" />
<glyph unicode="&#xad;" horiz-adv-x="600" d="M82 610v209h436v-209h-436z" />
<glyph unicode="&#xae;" horiz-adv-x="1519" d="M63 717q0 164 50.5 301.5t141 233t220.5 149t285 53.5q313 0 504.5 -202.5t191.5 -534.5t-191.5 -534.5t-504.5 -202.5q-155 0 -285 53.5t-220.5 149t-141 233t-50.5 301.5zM231 717q0 -267 144 -426.5t385 -159.5t384.5 159.5t143.5 426.5t-143.5 426.5t-384.5 159.5 t-385 -159.5t-144 -426.5zM532 281v872h232q124 0 188 -60.5t64 -179.5v-43q0 -150 -105 -206l140 -383h-185l-114 350h-45v-350h-175zM707 786h53q42 0 61 23.5t19 75.5v16q0 51 -19 73.5t-61 22.5h-53v-211z" />
<glyph unicode="&#xaf;" horiz-adv-x="512" d="M59 1563v131h394v-131h-394z" />
<glyph unicode="&#xb0;" horiz-adv-x="569" d="M59 1229q0 98 64 161.5t162 63.5t161.5 -63.5t63.5 -161.5t-63.5 -161.5t-161.5 -63.5t-162 63.5t-64 161.5zM201 1229q0 -41 23 -65.5t61 -24.5t61 24.5t23 65.5t-23 65.5t-61 24.5t-61 -24.5t-23 -65.5z" />
<glyph unicode="&#xb1;" d="M41 0v168h799v-168h-799zM41 633v168h315v340h168v-340h316v-168h-316v-340h-168v340h-315z" />
<glyph unicode="&#xb2;" horiz-adv-x="485" d="M31 795v118l194 306q44 67 60 111t16 97v19q0 80 -63 80q-36 0 -51 -23t-15 -78v-45l-141 6v60q0 99 55.5 156t153.5 57t153.5 -54t55.5 -149v-33q0 -63 -22.5 -121t-86.5 -159l-137 -213h246v-135h-418z" />
<glyph unicode="&#xb3;" horiz-adv-x="514" d="M37 993v45l143 6v-36q0 -54 17.5 -77.5t56.5 -23.5q74 0 74 94v60q0 56 -20.5 80t-67.5 24h-62v133h62q42 0 59.5 23t17.5 76v39q0 90 -67 90q-36 0 -52 -23.5t-16 -77.5v-36l-143 6v45q0 103 56 161t157 58t157 -58t56 -161v-41q0 -116 -86 -160v-4q96 -45 96 -184v-58 q0 -103 -57.5 -161t-161.5 -58t-161.5 58t-57.5 161z" />
<glyph unicode="&#xb4;" horiz-adv-x="512" d="M152 1516l118 225h219l-178 -225h-159z" />
<glyph unicode="&#xb5;" horiz-adv-x="901" d="M117 -252v1096h217v-522q0 -142 117 -142q116 0 116 142v522h217v-844h-163l-31 98h-4q-62 -118 -203 -118q-35 0 -49 4v-236h-217z" />
<glyph unicode="&#xb6;" horiz-adv-x="1026" d="M68 1018v86q0 161 83.5 245.5t243.5 84.5h494v-1639h-172v1456h-144v-1456h-172v893h-6q-159 0 -243 85t-84 245z" />
<glyph unicode="&#xb7;" horiz-adv-x="462" d="M117 602v229h229v-229h-229z" />
<glyph unicode="&#xb8;" horiz-adv-x="512" d="M55 -162l152 8v-16q0 -49 47 -49t47 49q0 34 -16 47.5t-56 13.5h-20v138h98v-101q152 0 152 -108q0 -121 -207 -121q-197 0 -197 127v12z" />
<glyph unicode="&#xb9;" horiz-adv-x="401" d="M23 1425v105q157 6 202 108h105v-843h-148v630h-159z" />
<glyph unicode="&#xba;" horiz-adv-x="577" d="M76 535v124h426v-124h-426zM76 1024v209q0 104 56 162.5t157 58.5t157 -58.5t56 -162.5v-209q0 -104 -56 -162.5t-157 -58.5t-157 58.5t-56 162.5zM213 1018q0 -88 76 -88t76 88v221q0 88 -76 88t-76 -88v-221z" />
<glyph unicode="&#xbb;" horiz-adv-x="888" d="M94 399v226l127 92l-127 92v225l336 -256v-123zM483 399v226l127 92l-127 92v225l336 -256v-123z" />
<glyph unicode="&#xbc;" horiz-adv-x="1085" d="M23 1221v104q81 3 130 29.5t72 79.5h105v-844h-148v631h-159zM199 -20l516 1474h135l-516 -1474h-135zM575 178v121l273 545h149v-533h64v-133h-64v-178h-147v178h-275zM717 311h133v269h-4z" />
<glyph unicode="&#xbd;" horiz-adv-x="1132" d="M23 1221v104q81 3 130 29.5t72 79.5h105v-844h-148v631h-159zM199 -20l516 1474h135l-516 -1474h-135zM678 0v119l194 305q44 67 60 111.5t16 97.5v18q0 80 -63 80q-36 0 -51 -23t-15 -77v-45l-141 6v59q0 99 55.5 156t153.5 57t153.5 -53.5t55.5 -148.5v-33 q0 -64 -22.5 -122.5t-86.5 -158.5l-137 -213h246v-135h-418z" />
<glyph unicode="&#xbe;" horiz-adv-x="1198" d="M37 788v46l143 6v-37q0 -54 17.5 -77.5t56.5 -23.5q74 0 74 95v59q0 56 -20.5 80.5t-67.5 24.5h-62v133h62q42 0 59.5 22.5t17.5 75.5v39q0 90 -67 90q-36 0 -52 -23.5t-16 -76.5v-37l-143 6v45q0 103 56 161t157 58t157 -58t56 -161v-41q0 -116 -86 -160v-4 q96 -45 96 -184v-58q0 -103 -57.5 -161t-161.5 -58t-161.5 58t-57.5 161zM311 -20l516 1474h136l-517 -1474h-135zM688 178v121l273 545h149v-533h64v-133h-64v-178h-147v178h-275zM829 311h134v269h-5z" />
<glyph unicode="&#xbf;" horiz-adv-x="755" d="M63 311v33q0 89 28.5 160.5t103.5 165.5q79 99 107 169.5t28 170.5v65h196v-65q0 -149 -30 -239t-115 -196q-58 -74 -79 -122.5t-21 -104.5v-29q0 -139 108 -139q113 0 113 148v32l209 -20v-29q0 -157 -86 -244t-238 -87q-154 0 -239 83t-85 248zM313 1204v230h230v-230 h-230z" />
<glyph unicode="&#xc0;" horiz-adv-x="849" d="M39 0l248 1434h276l248 -1434h-221l-47 326h-240l-47 -326h-217zM193 1741h219l118 -225h-159zM332 522h182l-88 604h-6z" />
<glyph unicode="&#xc1;" horiz-adv-x="849" d="M39 0l248 1434h276l248 -1434h-221l-47 326h-240l-47 -326h-217zM322 1516l118 225h219l-178 -225h-159zM332 522h182l-88 604h-6z" />
<glyph unicode="&#xc2;" horiz-adv-x="849" d="M39 0l248 1434h276l248 -1434h-221l-47 326h-240l-47 -326h-217zM176 1516l139 225h222l139 -225h-160l-90 114l-90 -114h-160zM332 522h182l-88 604h-6z" />
<glyph unicode="&#xc3;" horiz-adv-x="849" d="M39 0l248 1434h276l248 -1434h-221l-47 326h-240l-47 -326h-217zM178 1608q38 65 75 93t85 28q39 0 96 -33q52 -29 76 -29q42 0 82 57l82 -75q-38 -65 -75 -93t-85 -28q-39 0 -96 33q-50 28 -76 28q-42 0 -82 -57zM332 522h182l-88 604h-6z" />
<glyph unicode="&#xc4;" horiz-adv-x="849" d="M39 0l248 1434h276l248 -1434h-221l-47 326h-240l-47 -326h-217zM180 1530v196h193v-196h-193zM332 522h182l-88 604h-6zM479 1530v196h193v-196h-193z" />
<glyph unicode="&#xc5;" horiz-adv-x="849" d="M39 0l248 1434h276l248 -1434h-221l-47 326h-240l-47 -326h-217zM270 1651q0 69 44 113t112 44t112 -44t44 -113q0 -67 -44 -111.5t-112 -44.5t-112 44.5t-44 111.5zM332 522h182l-88 604h-6zM369 1651q0 -28 15.5 -45t41.5 -17t41.5 17t15.5 45q0 29 -15.5 46t-41.5 17 t-41.5 -17t-15.5 -46z" />
<glyph unicode="&#xc6;" horiz-adv-x="1253" d="M23 0l448 1434h715v-201h-393v-406h317v-200h-317v-426h393v-201h-611v326h-241l-96 -326h-215zM393 522h182v611h-4z" />
<glyph unicode="&#xc7;" horiz-adv-x="833" d="M94 324v786q0 163 88 253.5t246 90.5q160 0 249 -90.5t89 -253.5v-129l-209 -10v116q0 166 -123 166q-60 0 -91.5 -37t-31.5 -108v-782q0 -71 31.5 -108.5t91.5 -37.5q123 0 123 166v160l209 -10v-172q0 -149 -75 -238t-212 -104v-54q152 0 152 -108q0 -121 -207 -121 q-197 0 -197 127v12l152 8v-16q0 -49 47 -49t47 49q0 34 -16 47.5t-56 13.5h-20v91q-137 14 -212 103t-75 239z" />
<glyph unicode="&#xc8;" horiz-adv-x="794" d="M117 0v1434h610v-201h-393v-406h317v-200h-317v-426h393v-201h-610zM186 1741h220l118 -225h-159z" />
<glyph unicode="&#xc9;" horiz-adv-x="794" d="M117 0v1434h610v-201h-393v-406h317v-200h-317v-426h393v-201h-610zM315 1516l119 225h219l-178 -225h-160z" />
<glyph unicode="&#xca;" horiz-adv-x="794" d="M117 0v1434h610v-201h-393v-406h317v-200h-317v-426h393v-201h-610zM170 1516l139 225h221l140 -225h-160l-90 114l-90 -114h-160z" />
<glyph unicode="&#xcb;" horiz-adv-x="794" d="M117 0v1434h610v-201h-393v-406h317v-200h-317v-426h393v-201h-610zM174 1530v196h193v-196h-193zM473 1530v196h193v-196h-193z" />
<glyph unicode="&#xcc;" horiz-adv-x="450" d="M-8 1741h219l119 -225h-160zM117 0v1434h217v-1434h-217z" />
<glyph unicode="&#xcd;" horiz-adv-x="450" d="M117 0v1434h217v-1434h-217zM121 1516l119 225h219l-178 -225h-160z" />
<glyph unicode="&#xce;" horiz-adv-x="450" d="M-25 1516l140 225h221l139 -225h-160l-90 114l-90 -114h-160zM117 0v1434h217v-1434h-217z" />
<glyph unicode="&#xcf;" horiz-adv-x="450" d="M-20 1530v196h192v-196h-192zM117 0v1434h217v-1434h-217zM279 1530v196h192v-196h-192z" />
<glyph unicode="&#xd0;" horiz-adv-x="897" d="M41 614v201h90v619h311q175 0 268 -93t93 -270v-709q0 -177 -93 -269.5t-268 -92.5h-311v614h-90zM348 201h86q78 0 115 42.5t37 133.5v680q0 91 -37 133.5t-115 42.5h-86v-418h129v-201h-129v-413z" />
<glyph unicode="&#xd1;" horiz-adv-x="940" d="M117 0v1434h241l256 -854h4v854h205v-1434h-213l-284 950h-4v-950h-205zM223 1608q38 65 75 93t85 28q39 0 96 -33q52 -29 76 -29q42 0 82 57l82 -75q-38 -65 -75 -93t-85 -28q-39 0 -96 33q-50 28 -76 28q-42 0 -82 -57z" />
<glyph unicode="&#xd2;" horiz-adv-x="888" d="M94 342v750q0 169 93.5 265.5t256.5 96.5t257 -96.5t94 -265.5v-750q0 -169 -94 -265.5t-257 -96.5t-256.5 96.5t-93.5 265.5zM211 1741h219l119 -225h-160zM311 344q0 -80 34.5 -122t98.5 -42q65 0 99.5 42.5t34.5 121.5v746q0 79 -34.5 121t-99.5 42t-99 -42t-34 -121 v-746z" />
<glyph unicode="&#xd3;" horiz-adv-x="888" d="M94 342v750q0 169 93.5 265.5t256.5 96.5t257 -96.5t94 -265.5v-750q0 -169 -94 -265.5t-257 -96.5t-256.5 96.5t-93.5 265.5zM311 344q0 -80 34.5 -122t98.5 -42q65 0 99.5 42.5t34.5 121.5v746q0 79 -34.5 121t-99.5 42t-99 -42t-34 -121v-746zM340 1516l119 225h219 l-178 -225h-160z" />
<glyph unicode="&#xd4;" horiz-adv-x="888" d="M94 342v750q0 169 93.5 265.5t256.5 96.5t257 -96.5t94 -265.5v-750q0 -169 -94 -265.5t-257 -96.5t-256.5 96.5t-93.5 265.5zM195 1516l139 225h221l139 -225h-159l-91 114l-90 -114h-159zM311 344q0 -80 34.5 -122t98.5 -42q65 0 99.5 42.5t34.5 121.5v746 q0 79 -34.5 121t-99.5 42t-99 -42t-34 -121v-746z" />
<glyph unicode="&#xd5;" horiz-adv-x="888" d="M94 342v750q0 169 93.5 265.5t256.5 96.5t257 -96.5t94 -265.5v-750q0 -169 -94 -265.5t-257 -96.5t-256.5 96.5t-93.5 265.5zM197 1608q38 66 74.5 93.5t84.5 27.5q40 0 97 -33q52 -29 75 -29q42 0 82 57l82 -75q-38 -65 -75 -93t-85 -28q-39 0 -96 33q-50 28 -76 28 q-41 0 -81 -57zM311 344q0 -80 34.5 -122t98.5 -42q65 0 99.5 42.5t34.5 121.5v746q0 79 -34.5 121t-99.5 42t-99 -42t-34 -121v-746z" />
<glyph unicode="&#xd6;" horiz-adv-x="888" d="M94 342v750q0 169 93.5 265.5t256.5 96.5t257 -96.5t94 -265.5v-750q0 -169 -94 -265.5t-257 -96.5t-256.5 96.5t-93.5 265.5zM199 1530v196h192v-196h-192zM311 344q0 -80 34.5 -122t98.5 -42q65 0 99.5 42.5t34.5 121.5v746q0 79 -34.5 121t-99.5 42t-99 -42t-34 -121 v-746zM498 1530v196h192v-196h-192z" />
<glyph unicode="&#xd7;" d="M55 446l267 271l-267 270l119 119l266 -270l267 270l118 -119l-266 -270l266 -271l-118 -118l-267 270l-266 -270z" />
<glyph unicode="&#xd8;" horiz-adv-x="888" d="M84 35l49 119q-39 83 -39 188v750q0 169 93.5 265.5t256.5 96.5q123 0 203 -53l23 53l135 -55l-49 -119q39 -83 39 -188v-750q0 -169 -94 -265.5t-257 -96.5q-122 0 -202 53l-23 -53zM311 590h2l246 596q-30 67 -115 67q-65 0 -99 -42t-34 -121v-500zM330 248 q30 -68 114 -68q65 0 99.5 42.5t34.5 121.5v500h-3z" />
<glyph unicode="&#xd9;" d="M104 322v1112h209v-1106q0 -144 123 -144t123 144v1106h217v-1112q0 -166 -89.5 -254t-248.5 -88q-156 0 -245 88t-89 254zM207 1741h219l119 -225h-160z" />
<glyph unicode="&#xda;" d="M104 322v1112h209v-1106q0 -144 123 -144t123 144v1106h217v-1112q0 -166 -89.5 -254t-248.5 -88q-156 0 -245 88t-89 254zM336 1516l119 225h219l-178 -225h-160z" />
<glyph unicode="&#xdb;" d="M104 322v1112h209v-1106q0 -144 123 -144t123 144v1106h217v-1112q0 -166 -89.5 -254t-248.5 -88q-156 0 -245 88t-89 254zM190 1516l140 225h221l139 -225h-160l-90 114l-90 -114h-160z" />
<glyph unicode="&#xdc;" d="M104 322v1112h209v-1106q0 -144 123 -144t123 144v1106h217v-1112q0 -166 -89.5 -254t-248.5 -88q-156 0 -245 88t-89 254zM195 1530v196h192v-196h-192zM494 1530v196h192v-196h-192z" />
<glyph unicode="&#xdd;" horiz-adv-x="770" d="M-23 1434h230l182 -508h4l174 508h226l-297 -787v-647h-217v649zM281 1516l118 225h219l-178 -225h-159z" />
<glyph unicode="&#xde;" horiz-adv-x="833" d="M117 0v1434h217v-205h96q175 0 268 -93t93 -270v-114q0 -177 -93 -270t-268 -93h-96v-389h-217zM334 590h88q78 0 114.5 42.5t36.5 133.5v86q0 91 -36.5 133.5t-114.5 42.5h-88v-438z" />
<glyph unicode="&#xdf;" horiz-adv-x="1466" d="M47 301v96l209 21v-103q0 -135 123 -135t123 135v47q0 69 -41 131.5t-148 153.5q-148 125 -207 226.5t-59 228.5v31q0 154 84.5 237.5t239.5 83.5t239 -83.5t84 -237.5v-37l-209 -21v53q0 125 -110 125q-111 0 -111 -125v-18q0 -66 38.5 -128t143.5 -151 q151 -127 212 -228.5t61 -229.5v-72q0 -154 -87.5 -237.5t-248.5 -83.5t-248.5 83.5t-87.5 237.5zM780 301v96l209 21v-103q0 -135 123 -135t123 135v47q0 69 -40.5 131.5t-147.5 153.5q-149 125 -208 226.5t-59 228.5v31q0 154 84.5 237.5t239.5 83.5t239 -83.5t84 -237.5 v-37l-208 -21v53q0 125 -111 125t-111 -125v-18q0 -66 39 -128t144 -151q150 -127 211 -228.5t61 -229.5v-72q0 -154 -87.5 -237.5t-248.5 -83.5t-248.5 83.5t-87.5 237.5z" />
<glyph unicode="&#xe0;" horiz-adv-x="849" d="M39 0l248 1434h276l248 -1434h-221l-47 326h-240l-47 -326h-217zM193 1741h219l118 -225h-159zM332 522h182l-88 604h-6z" />
<glyph unicode="&#xe1;" horiz-adv-x="849" d="M39 0l248 1434h276l248 -1434h-221l-47 326h-240l-47 -326h-217zM322 1516l118 225h219l-178 -225h-159zM332 522h182l-88 604h-6z" />
<glyph unicode="&#xe2;" horiz-adv-x="849" d="M39 0l248 1434h276l248 -1434h-221l-47 326h-240l-47 -326h-217zM176 1516l139 225h222l139 -225h-160l-90 114l-90 -114h-160zM332 522h182l-88 604h-6z" />
<glyph unicode="&#xe3;" horiz-adv-x="849" d="M39 0l248 1434h276l248 -1434h-221l-47 326h-240l-47 -326h-217zM178 1608q38 65 75 93t85 28q39 0 96 -33q52 -29 76 -29q42 0 82 57l82 -75q-38 -65 -75 -93t-85 -28q-39 0 -96 33q-50 28 -76 28q-42 0 -82 -57zM332 522h182l-88 604h-6z" />
<glyph unicode="&#xe4;" horiz-adv-x="849" d="M39 0l248 1434h276l248 -1434h-221l-47 326h-240l-47 -326h-217zM180 1530v196h193v-196h-193zM332 522h182l-88 604h-6zM479 1530v196h193v-196h-193z" />
<glyph unicode="&#xe5;" horiz-adv-x="849" d="M39 0l248 1434h276l248 -1434h-221l-47 326h-240l-47 -326h-217zM270 1651q0 69 44 113t112 44t112 -44t44 -113q0 -67 -44 -111.5t-112 -44.5t-112 44.5t-44 111.5zM332 522h182l-88 604h-6zM369 1651q0 -28 15.5 -45t41.5 -17t41.5 17t15.5 45q0 29 -15.5 46t-41.5 17 t-41.5 -17t-15.5 -46z" />
<glyph unicode="&#xe6;" horiz-adv-x="1253" d="M23 0l448 1434h715v-201h-393v-406h317v-200h-317v-426h393v-201h-611v326h-241l-96 -326h-215zM393 522h182v611h-4z" />
<glyph unicode="&#xe7;" horiz-adv-x="833" d="M94 324v786q0 163 88 253.5t246 90.5q160 0 249 -90.5t89 -253.5v-129l-209 -10v116q0 166 -123 166q-60 0 -91.5 -37t-31.5 -108v-782q0 -71 31.5 -108.5t91.5 -37.5q123 0 123 166v160l209 -10v-172q0 -149 -75 -238t-212 -104v-54q152 0 152 -108q0 -121 -207 -121 q-197 0 -197 127v12l152 8v-16q0 -49 47 -49t47 49q0 34 -16 47.5t-56 13.5h-20v91q-137 14 -212 103t-75 239z" />
<glyph unicode="&#xe8;" horiz-adv-x="794" d="M117 0v1434h610v-201h-393v-406h317v-200h-317v-426h393v-201h-610zM186 1741h220l118 -225h-159z" />
<glyph unicode="&#xe9;" horiz-adv-x="794" d="M117 0v1434h610v-201h-393v-406h317v-200h-317v-426h393v-201h-610zM315 1516l119 225h219l-178 -225h-160z" />
<glyph unicode="&#xea;" horiz-adv-x="794" d="M117 0v1434h610v-201h-393v-406h317v-200h-317v-426h393v-201h-610zM170 1516l139 225h221l140 -225h-160l-90 114l-90 -114h-160z" />
<glyph unicode="&#xeb;" horiz-adv-x="794" d="M117 0v1434h610v-201h-393v-406h317v-200h-317v-426h393v-201h-610zM174 1530v196h193v-196h-193zM473 1530v196h193v-196h-193z" />
<glyph unicode="&#xec;" horiz-adv-x="450" d="M-8 1741h219l119 -225h-160zM117 0v1434h217v-1434h-217z" />
<glyph unicode="&#xed;" horiz-adv-x="450" d="M117 0v1434h217v-1434h-217zM121 1516l119 225h219l-178 -225h-160z" />
<glyph unicode="&#xee;" horiz-adv-x="450" d="M-25 1516l140 225h221l139 -225h-160l-90 114l-90 -114h-160zM117 0v1434h217v-1434h-217z" />
<glyph unicode="&#xef;" horiz-adv-x="450" d="M-20 1530v196h192v-196h-192zM117 0v1434h217v-1434h-217zM279 1530v196h192v-196h-192z" />
<glyph unicode="&#xf0;" horiz-adv-x="897" d="M41 614v201h90v619h311q175 0 268 -93t93 -270v-709q0 -177 -93 -269.5t-268 -92.5h-311v614h-90zM348 201h86q78 0 115 42.5t37 133.5v680q0 91 -37 133.5t-115 42.5h-86v-418h129v-201h-129v-413z" />
<glyph unicode="&#xf1;" horiz-adv-x="940" d="M117 0v1434h241l256 -854h4v854h205v-1434h-213l-284 950h-4v-950h-205zM223 1608q38 65 75 93t85 28q39 0 96 -33q52 -29 76 -29q42 0 82 57l82 -75q-38 -65 -75 -93t-85 -28q-39 0 -96 33q-50 28 -76 28q-42 0 -82 -57z" />
<glyph unicode="&#xf2;" horiz-adv-x="888" d="M94 342v750q0 169 93.5 265.5t256.5 96.5t257 -96.5t94 -265.5v-750q0 -169 -94 -265.5t-257 -96.5t-256.5 96.5t-93.5 265.5zM211 1741h219l119 -225h-160zM311 344q0 -80 34.5 -122t98.5 -42q65 0 99.5 42.5t34.5 121.5v746q0 79 -34.5 121t-99.5 42t-99 -42t-34 -121 v-746z" />
<glyph unicode="&#xf3;" horiz-adv-x="888" d="M94 342v750q0 169 93.5 265.5t256.5 96.5t257 -96.5t94 -265.5v-750q0 -169 -94 -265.5t-257 -96.5t-256.5 96.5t-93.5 265.5zM311 344q0 -80 34.5 -122t98.5 -42q65 0 99.5 42.5t34.5 121.5v746q0 79 -34.5 121t-99.5 42t-99 -42t-34 -121v-746zM340 1516l119 225h219 l-178 -225h-160z" />
<glyph unicode="&#xf4;" horiz-adv-x="888" d="M94 342v750q0 169 93.5 265.5t256.5 96.5t257 -96.5t94 -265.5v-750q0 -169 -94 -265.5t-257 -96.5t-256.5 96.5t-93.5 265.5zM195 1516l139 225h221l139 -225h-159l-91 114l-90 -114h-159zM311 344q0 -80 34.5 -122t98.5 -42q65 0 99.5 42.5t34.5 121.5v746 q0 79 -34.5 121t-99.5 42t-99 -42t-34 -121v-746z" />
<glyph unicode="&#xf5;" horiz-adv-x="888" d="M94 342v750q0 169 93.5 265.5t256.5 96.5t257 -96.5t94 -265.5v-750q0 -169 -94 -265.5t-257 -96.5t-256.5 96.5t-93.5 265.5zM197 1608q38 66 74.5 93.5t84.5 27.5q40 0 97 -33q52 -29 75 -29q42 0 82 57l82 -75q-38 -65 -75 -93t-85 -28q-39 0 -96 33q-50 28 -76 28 q-41 0 -81 -57zM311 344q0 -80 34.5 -122t98.5 -42q65 0 99.5 42.5t34.5 121.5v746q0 79 -34.5 121t-99.5 42t-99 -42t-34 -121v-746z" />
<glyph unicode="&#xf6;" horiz-adv-x="888" d="M94 342v750q0 169 93.5 265.5t256.5 96.5t257 -96.5t94 -265.5v-750q0 -169 -94 -265.5t-257 -96.5t-256.5 96.5t-93.5 265.5zM199 1530v196h192v-196h-192zM311 344q0 -80 34.5 -122t98.5 -42q65 0 99.5 42.5t34.5 121.5v746q0 79 -34.5 121t-99.5 42t-99 -42t-34 -121 v-746zM498 1530v196h192v-196h-192z" />
<glyph unicode="&#xf7;" d="M41 633v168h799v-168h-799zM336 281v208h209v-208h-209zM336 944v209h209v-209h-209z" />
<glyph unicode="&#xf8;" horiz-adv-x="888" d="M84 35l49 119q-39 83 -39 188v750q0 169 93.5 265.5t256.5 96.5q123 0 203 -53l23 53l135 -55l-49 -119q39 -83 39 -188v-750q0 -169 -94 -265.5t-257 -96.5q-122 0 -202 53l-23 -53zM311 590h2l246 596q-30 67 -115 67q-65 0 -99 -42t-34 -121v-500zM330 248 q30 -68 114 -68q65 0 99.5 42.5t34.5 121.5v500h-3z" />
<glyph unicode="&#xf9;" d="M104 322v1112h209v-1106q0 -144 123 -144t123 144v1106h217v-1112q0 -166 -89.5 -254t-248.5 -88q-156 0 -245 88t-89 254zM207 1741h219l119 -225h-160z" />
<glyph unicode="&#xfa;" d="M104 322v1112h209v-1106q0 -144 123 -144t123 144v1106h217v-1112q0 -166 -89.5 -254t-248.5 -88q-156 0 -245 88t-89 254zM336 1516l119 225h219l-178 -225h-160z" />
<glyph unicode="&#xfb;" d="M104 322v1112h209v-1106q0 -144 123 -144t123 144v1106h217v-1112q0 -166 -89.5 -254t-248.5 -88q-156 0 -245 88t-89 254zM190 1516l140 225h221l139 -225h-160l-90 114l-90 -114h-160z" />
<glyph unicode="&#xfc;" d="M104 322v1112h209v-1106q0 -144 123 -144t123 144v1106h217v-1112q0 -166 -89.5 -254t-248.5 -88q-156 0 -245 88t-89 254zM195 1530v196h192v-196h-192zM494 1530v196h192v-196h-192z" />
<glyph unicode="&#xfd;" horiz-adv-x="770" d="M-23 1434h230l182 -508h4l174 508h226l-297 -787v-647h-217v649zM281 1516l118 225h219l-178 -225h-159z" />
<glyph unicode="&#xfe;" horiz-adv-x="833" d="M117 0v1434h217v-205h96q175 0 268 -93t93 -270v-114q0 -177 -93 -270t-268 -93h-96v-389h-217zM334 590h88q78 0 114.5 42.5t36.5 133.5v86q0 91 -36.5 133.5t-114.5 42.5h-88v-438z" />
<glyph unicode="&#xff;" horiz-adv-x="770" d="M-23 1434h230l182 -508h4l174 508h226l-297 -787v-647h-217v649zM139 1530v196h193v-196h-193zM438 1530v196h193v-196h-193z" />
<glyph unicode="&#x152;" horiz-adv-x="1226" d="M94 362v709q0 177 93 270t268 93h704v-201h-393v-406h317v-200h-317v-426h393v-201h-704q-175 0 -268 92.5t-93 269.5zM311 377q0 -91 37 -133.5t115 -42.5h86v1032h-86q-78 0 -115 -42.5t-37 -133.5v-680z" />
<glyph unicode="&#x153;" horiz-adv-x="1226" d="M94 362v709q0 177 93 270t268 93h704v-201h-393v-406h317v-200h-317v-426h393v-201h-704q-175 0 -268 92.5t-93 269.5zM311 377q0 -91 37 -133.5t115 -42.5h86v1032h-86q-78 0 -115 -42.5t-37 -133.5v-680z" />
<glyph unicode="&#x178;" horiz-adv-x="770" d="M-23 1434h230l182 -508h4l174 508h226l-297 -787v-647h-217v649zM139 1530v196h193v-196h-193zM438 1530v196h193v-196h-193z" />
<glyph unicode="&#x2c6;" horiz-adv-x="512" d="M6 1516l139 225h222l139 -225h-160l-90 114l-90 -114h-160z" />
<glyph unicode="&#x2dc;" horiz-adv-x="512" d="M8 1608q38 65 75 93t85 28q39 0 96 -33q52 -29 76 -29q42 0 82 57l82 -75q-38 -65 -75 -93t-85 -28q-39 0 -96 33q-50 28 -76 28q-42 0 -82 -57z" />
<glyph unicode="&#x2000;" horiz-adv-x="904" />
<glyph unicode="&#x2001;" horiz-adv-x="1808" />
<glyph unicode="&#x2002;" horiz-adv-x="904" />
<glyph unicode="&#x2003;" horiz-adv-x="1808" />
<glyph unicode="&#x2004;" horiz-adv-x="602" />
<glyph unicode="&#x2005;" horiz-adv-x="452" />
<glyph unicode="&#x2006;" horiz-adv-x="301" />
<glyph unicode="&#x2007;" horiz-adv-x="301" />
<glyph unicode="&#x2008;" horiz-adv-x="226" />
<glyph unicode="&#x2009;" horiz-adv-x="361" />
<glyph unicode="&#x200a;" horiz-adv-x="100" />
<glyph unicode="&#x2010;" horiz-adv-x="600" d="M82 610v209h436v-209h-436z" />
<glyph unicode="&#x2011;" horiz-adv-x="600" d="M82 610v209h436v-209h-436z" />
<glyph unicode="&#x2012;" horiz-adv-x="600" d="M82 610v209h436v-209h-436z" />
<glyph unicode="&#x2013;" horiz-adv-x="901" d="M61 633v168h779v-168h-779z" />
<glyph unicode="&#x2014;" horiz-adv-x="1638" d="M61 633v168h1516v-168h-1516z" />
<glyph unicode="&#x2018;" horiz-adv-x="434" d="M100 975v209l117 250h113l-74 -230h74v-229h-230z" />
<glyph unicode="&#x2019;" horiz-adv-x="434" d="M104 975l74 229h-74v230h230v-209l-117 -250h-113z" />
<glyph unicode="&#x201a;" horiz-adv-x="434" d="M104 0v229h230v-209l-117 -249h-113l74 229h-74z" />
<glyph unicode="&#x201c;" horiz-adv-x="761" d="M100 975v209l117 250h113l-74 -230h74v-229h-230zM428 975v209l117 250h112l-73 -230h73v-229h-229z" />
<glyph unicode="&#x201d;" horiz-adv-x="761" d="M104 975l74 229h-74v230h230v-209l-117 -250h-113zM432 975l74 229h-74v230h230v-209l-117 -250h-113z" />
<glyph unicode="&#x201e;" horiz-adv-x="761" d="M94 0v229h230v-209l-117 -249h-113l74 229h-74zM432 0v229h230v-209l-117 -249h-113l74 229h-74z" />
<glyph unicode="&#x2022;" horiz-adv-x="901" d="M143 717q0 132 88 219.5t220 87.5t219.5 -87.5t87.5 -219.5t-87.5 -219.5t-219.5 -87.5t-220 87.5t-88 219.5z" />
<glyph unicode="&#x2026;" horiz-adv-x="1638" d="M158 0v229h229v-229h-229zM705 0v229h229v-229h-229zM1251 0v229h230v-229h-230z" />
<glyph unicode="&#x202f;" horiz-adv-x="361" />
<glyph unicode="&#x2039;" horiz-adv-x="499" d="M70 655v123l336 256v-225l-127 -92l127 -92v-226z" />
<glyph unicode="&#x203a;" horiz-adv-x="499" d="M92 399v226l127 92l-127 92v225l336 -256v-123z" />
<glyph unicode="&#x205f;" horiz-adv-x="452" />
<glyph unicode="&#x20ac;" d="M57 543v123h70v143h-70v123h70v178q0 163 88 253.5t246 90.5q160 0 249 -90.5t89 -253.5v-47l-209 -10v34q0 166 -123 166q-60 0 -91.5 -37t-31.5 -108v-176h240v-123h-240v-143h240v-123h-240v-217q0 -71 31.5 -108.5t91.5 -37.5q123 0 123 166v78l209 -10v-90 q0 -163 -89 -253.5t-249 -90.5q-158 0 -246 90.5t-88 253.5v219h-70z" />
<glyph unicode="&#x2122;" horiz-adv-x="1163" d="M23 1298v136h413v-136h-135v-655h-145v655h-133zM496 643v791h186l86 -363h4l84 363h191v-791h-146v483h-4l-88 -368h-82l-88 368h-4v-483h-139z" />
<glyph unicode="&#x25fc;" horiz-adv-x="1433" d="M0 0v1434h1434v-1434h-1434z" />
</font>
</defs>
</svg>
